<?xml version="1.0" standalone="no"?>
<!DOCTYPE svg PUBLIC "-//W3C//DTD SVG 20010904//EN"
 "http://www.w3.org/TR/2001/REC-SVG-20010904/DTD/svg10.dtd">
<svg version="1.0" xmlns="http://www.w3.org/2000/svg"
 width="500.000000pt" height="500.000000pt" viewBox="0 0 500.000000 500.000000"
 preserveAspectRatio="xMidYMid meet">
<metadata>
Created by potrace 1.10, written by Peter Selinger 2001-2011
</metadata>
<g transform="translate(0.000000,500.000000) scale(0.100000,-0.100000)"
fill="#f8f7f7" stroke="none">
<path d="M4470 2765 l0 -2235 -2235 0 c-1980 0 -2235 -2 -2235 -15 0 -13 257
-15 2250 -15 l2250 0 0 2250 c0 1993 -2 2250 -15 2250 -13 0 -15 -255 -15
-2235z"/>
<path d="M2108 3813 c-9 -10 -53 -92 -98 -183 -45 -91 -86 -169 -90 -175 -4
-5 -105 -203 -225 -440 -120 -236 -221 -434 -225 -440 -4 -5 -98 -189 -210
-409 -179 -354 -201 -401 -191 -423 15 -33 39 -40 61 -17 9 10 77 136 150 279
73 143 176 346 230 450 100 195 235 458 475 930 76 149 143 276 150 283 9 10
22 -10 65 -99 l53 -112 -66 -131 c-68 -136 -286 -562 -601 -1176 -100 -195
-185 -364 -189 -374 -9 -23 17 -66 40 -66 10 0 198 179 418 398 402 400 487
482 503 482 4 0 24 -32 42 -71 l34 -70 -95 -88 c-125 -116 -539 -578 -539
-601 0 -4 9 -18 19 -31 17 -22 21 -22 45 -10 14 8 76 73 138 145 177 204 212
243 346 375 l126 125 157 -322 c137 -278 161 -322 184 -328 31 -8 76 21 150
96 27 27 55 50 61 50 6 0 22 -24 34 -54 12 -30 33 -64 46 -77 l25 -23 47 24
c25 14 88 66 138 115 78 77 98 104 138 185 99 202 100 385 5 580 -76 155 -229
278 -386 310 -114 24 -299 4 -415 -45 -15 -6 -31 20 -104 169 -90 186 -111
211 -145 180 -10 -9 -19 -23 -19 -31 0 -8 38 -92 83 -187 l84 -172 -76 -45
c-41 -24 -78 -45 -83 -47 -4 -2 -27 37 -52 86 -25 49 -52 92 -61 95 -16 7 -55
-25 -55 -44 0 -7 20 -54 44 -105 l44 -93 -91 -80 c-51 -44 -204 -192 -342
-330 -137 -138 -253 -251 -257 -251 -7 0 76 167 307 615 314 612 405 795 405
819 0 29 -140 328 -167 359 -9 9 -24 17 -33 17 -9 0 -24 -8 -32 -17z m131
-187 l84 -173 -80 -154 c-92 -177 -226 -439 -476 -929 -97 -190 -198 -386
-225 -435 -27 -50 -49 -91 -48 -92 1 -1 168 163 371 365 204 202 398 389 432
416 l62 48 -49 99 c-28 54 -50 105 -50 114 0 37 24 7 70 -87 28 -56 52 -104
55 -106 3 -3 15 4 28 15 28 26 159 103 175 103 7 0 12 2 12 5 0 3 -43 90 -94
194 -52 104 -92 191 -89 195 16 16 31 -7 115 -181 50 -104 91 -189 92 -190 0
0 42 13 91 29 170 57 350 48 489 -24 77 -41 182 -145 223 -223 126 -241 82
-532 -111 -730 -64 -65 -181 -154 -190 -144 -2 2 -23 42 -46 89 -23 47 -43 86
-44 87 -1 1 -44 -38 -95 -88 -51 -49 -101 -89 -111 -89 -17 0 -26 18 -279 535
l-68 140 -175 -175 c-96 -96 -232 -242 -303 -325 -168 -197 -153 -181 -166
-168 -18 18 379 462 559 625 l72 66 -47 100 c-27 56 -51 101 -54 101 -17 2
-192 -163 -544 -512 -214 -213 -393 -387 -397 -387 -5 0 -8 5 -8 10 0 6 69
144 152 308 84 163 279 544 434 847 l281 549 -71 148 c-39 81 -73 147 -76 147
-3 0 -26 -44 -52 -97 -163 -333 -975 -1906 -985 -1910 -7 -2 -13 2 -13 9 0 11
480 961 710 1404 75 145 263 512 304 593 14 28 32 52 39 51 6 0 50 -78 96
-173z"/>
<path d="M2821 2859 c-39 -8 -171 -48 -179 -54 -2 -2 71 -158 95 -204 1 -1 26
5 55 15 76 26 208 25 268 -2 60 -27 108 -77 138 -142 22 -48 24 -64 20 -145
-6 -110 -36 -192 -111 -305 l-50 -74 39 -83 c22 -46 41 -84 44 -85 3 0 36 24
75 53 188 144 285 382 242 598 -60 306 -330 488 -636 428z m283 -51 c89 -29
184 -96 232 -164 68 -95 94 -183 94 -319 0 -175 -45 -280 -176 -412 -45 -46
-86 -83 -93 -83 -6 0 -24 26 -40 59 l-30 58 25 34 c38 50 100 177 119 243 24
81 18 205 -13 268 -70 143 -229 208 -401 164 -34 -9 -65 -16 -67 -16 -7 0 -64
122 -64 136 0 17 96 45 180 54 88 8 163 1 234 -22z"/>
<path d="M2555 2762 c-74 -41 -155 -96 -155 -105 0 -6 88 -187 95 -195 2 -2
29 14 62 36 32 22 79 50 106 63 26 13 46 26 45 30 -14 34 -94 198 -98 198 -3
1 -27 -12 -55 -27z m83 -90 c29 -60 31 -68 16 -77 -9 -5 -43 -27 -76 -47 -32
-21 -62 -38 -66 -38 -8 0 -72 122 -72 137 0 14 128 92 150 92 9 0 29 -28 48
-67z"/>
<path d="M2875 2604 c-60 -14 -111 -27 -117 -31 -3 -1 51 -119 122 -261 70
-142 133 -274 141 -295 7 -20 15 -37 19 -37 11 0 83 122 112 192 76 178 34
351 -99 410 -42 18 -141 31 -178 22z m180 -60 c124 -65 139 -233 38 -426 -20
-38 -40 -68 -45 -68 -7 0 -248 482 -248 496 0 11 76 23 140 21 53 -2 87 -8
115 -23z"/>
<path d="M2640 2515 c-41 -24 -87 -55 -102 -67 l-27 -23 52 -105 c29 -58 101
-205 161 -327 l109 -222 63 57 c36 31 78 74 94 94 l30 37 -108 218 c-60 120
-126 255 -147 301 -21 45 -41 82 -44 82 -4 0 -40 -20 -81 -45z m185 -227 c59
-123 119 -247 134 -276 l25 -52 -64 -65 c-35 -36 -69 -65 -75 -65 -6 0 -75
131 -153 292 -115 235 -140 294 -130 304 20 19 130 84 143 84 7 0 60 -100 120
-222z"/>
</g>
</svg>
